<svg width="119" height="22" viewBox="0 0 119 22" fill="none" xmlns="http://www.w3.org/2000/svg">
<rect width="119" height="22" rx="11" fill="white"/>
<path d="M10.1726 15H8.77486L11.9155 6.27273H13.4368L16.5774 15H15.1797L12.7124 7.85795H12.6442L10.1726 15ZM10.407 11.5824H14.9411V12.6903H10.407V11.5824ZM17.0962 16.8878V13.8963H17.6289C17.7653 13.7713 17.8803 13.6222 17.9741 13.4489C18.0707 13.2756 18.1516 13.0696 18.217 12.831C18.2852 12.5923 18.342 12.3139 18.3874 11.9957C18.4329 11.6747 18.4727 11.3082 18.5067 10.8963L18.7113 8.45455H23.1602V13.8963H24.1658V16.8878H22.9215V15H18.3576V16.8878H17.0962ZM18.9925 13.8963H21.9158V9.54545H19.8533L19.717 10.8963C19.6516 11.5838 19.5692 12.1804 19.4698 12.6861C19.3704 13.1889 19.2113 13.5923 18.9925 13.8963ZM29.0845 13.4233L31.1982 8.45455H32.2976L29.5575 15H28.6115L25.9268 8.45455H27.0135L29.0845 13.4233ZM26.6598 8.45455V15H25.4112V8.45455H26.6598ZM31.5433 15V8.45455H32.7834V15H31.5433ZM35.7301 13.2145L38.6151 8.45455H39.9872V15H38.7386V10.2358L35.8665 15H34.4815V8.45455H35.7301V13.2145ZM46.1364 11.1776V12.2812H42.5909V11.1776H46.1364ZM42.9489 8.45455V15H41.7003V8.45455H42.9489ZM47.027 8.45455V15H45.7827V8.45455H47.027ZM49.9801 13.2145L52.8651 8.45455H54.2372V15H52.9886V10.2358L50.1165 15H48.7315V8.45455H49.9801V13.2145ZM58.7074 15.1321C58.0739 15.1321 57.5284 14.9886 57.071 14.7017C56.6165 14.4119 56.267 14.0128 56.0227 13.5043C55.7784 12.9957 55.6562 12.4134 55.6562 11.7571C55.6562 11.0923 55.7812 10.5057 56.0312 9.99716C56.2812 9.4858 56.6335 9.08665 57.0881 8.79972C57.5426 8.51278 58.0781 8.36932 58.6946 8.36932C59.1918 8.36932 59.6349 8.46165 60.0241 8.64631C60.4134 8.82812 60.7273 9.08381 60.9659 9.41335C61.2074 9.7429 61.3509 10.1278 61.3963 10.5682H60.1562C60.0881 10.2614 59.9318 9.99716 59.6875 9.77557C59.446 9.55398 59.1222 9.44318 58.7159 9.44318C58.3608 9.44318 58.0497 9.53693 57.7827 9.72443C57.5185 9.90909 57.3125 10.1733 57.1648 10.517C57.017 10.858 56.9432 11.2614 56.9432 11.7273C56.9432 12.2045 57.0156 12.6165 57.1605 12.9631C57.3054 13.3097 57.5099 13.5781 57.7741 13.7685C58.0412 13.9588 58.3551 14.054 58.7159 14.054C58.9574 14.054 59.1761 14.0099 59.3722 13.9219C59.571 13.831 59.7372 13.7017 59.8707 13.5341C60.0071 13.3665 60.1023 13.1648 60.1562 12.929H61.3963C61.3509 13.3523 61.2131 13.7301 60.983 14.0625C60.7528 14.3949 60.4446 14.6562 60.0582 14.8466C59.6747 15.0369 59.2244 15.1321 58.7074 15.1321ZM62.2635 9.55398V8.45455H67.7862V9.55398H65.6513V15H64.407V9.55398H62.2635ZM69.1339 17.4545V8.45455H70.3782V9.51562H70.4847C70.5586 9.37926 70.6651 9.22159 70.8043 9.04261C70.9435 8.86364 71.1367 8.70739 71.3839 8.57386C71.631 8.4375 71.9577 8.36932 72.364 8.36932C72.8924 8.36932 73.364 8.50284 73.7788 8.76989C74.1935 9.03693 74.5188 9.42187 74.7546 9.92472C74.9933 10.4276 75.1126 11.0327 75.1126 11.7401C75.1126 12.4474 74.9947 13.054 74.7589 13.5597C74.5231 14.0625 74.1992 14.4503 73.7873 14.723C73.3754 14.9929 72.9052 15.1278 72.3768 15.1278C71.979 15.1278 71.6538 15.0611 71.4009 14.9276C71.1509 14.794 70.9549 14.6378 70.8129 14.4588C70.6708 14.2798 70.5614 14.1207 70.4847 13.9815H70.408V17.4545H69.1339ZM70.3825 11.7273C70.3825 12.1875 70.4492 12.5909 70.5827 12.9375C70.7163 13.2841 70.9094 13.5554 71.1623 13.7514C71.4151 13.9446 71.7248 14.0412 72.0913 14.0412C72.4719 14.0412 72.7901 13.9403 73.0458 13.7386C73.3015 13.5341 73.4947 13.2571 73.6254 12.9077C73.7589 12.5582 73.8256 12.1648 73.8256 11.7273C73.8256 11.2955 73.7603 10.9077 73.6296 10.5639C73.5018 10.2202 73.3086 9.94886 73.0501 9.75C72.7944 9.55114 72.4748 9.4517 72.0913 9.4517C71.7219 9.4517 71.4094 9.54687 71.1538 9.73722C70.9009 9.92756 70.7092 10.1932 70.5785 10.5341C70.4478 10.875 70.3825 11.2727 70.3825 11.7273ZM78.445 15.1449C78.0302 15.1449 77.6552 15.0682 77.32 14.9148C76.9847 14.7585 76.7191 14.5327 76.5231 14.2372C76.3299 13.9418 76.2333 13.5795 76.2333 13.1506C76.2333 12.7812 76.3043 12.4773 76.4464 12.2386C76.5884 12 76.7802 11.8111 77.0217 11.6719C77.2631 11.5327 77.533 11.4276 77.8313 11.3565C78.1296 11.2855 78.4336 11.2315 78.7433 11.1946C79.1353 11.1491 79.4535 11.1122 79.6978 11.0838C79.9421 11.0526 80.1197 11.0028 80.2305 10.9347C80.3413 10.8665 80.3967 10.7557 80.3967 10.6023V10.5724C80.3967 10.2003 80.2915 9.91193 80.0813 9.70739C79.8739 9.50284 79.5643 9.40057 79.1523 9.40057C78.7234 9.40057 78.3853 9.49574 78.1381 9.68608C77.8938 9.87358 77.7248 10.0824 77.631 10.3125L76.4336 10.0398C76.5756 9.64205 76.783 9.32102 77.0558 9.0767C77.3313 8.82955 77.6481 8.65057 78.006 8.53977C78.364 8.42614 78.7404 8.36932 79.1353 8.36932C79.3967 8.36932 79.6737 8.40057 79.9663 8.46307C80.2617 8.52273 80.5373 8.63352 80.793 8.79545C81.0515 8.95739 81.2631 9.18892 81.4279 9.49006C81.5927 9.78835 81.6751 10.1761 81.6751 10.6534V15H80.4308V14.1051H80.3796C80.2972 14.2699 80.1737 14.4318 80.0089 14.5909C79.8441 14.75 79.6325 14.8821 79.3739 14.9872C79.1154 15.0923 78.8058 15.1449 78.445 15.1449ZM78.7219 14.1222C79.0742 14.1222 79.3754 14.0526 79.6254 13.9134C79.8782 13.7741 80.07 13.5923 80.2006 13.3679C80.3342 13.1406 80.4009 12.8977 80.4009 12.6392V11.7955C80.3555 11.8409 80.2674 11.8835 80.1367 11.9233C80.0089 11.9602 79.8626 11.9929 79.6978 12.0213C79.533 12.0469 79.3725 12.071 79.2163 12.0938C79.06 12.1136 78.9293 12.1307 78.8242 12.1449C78.5771 12.1761 78.3512 12.2287 78.1467 12.3026C77.945 12.3764 77.783 12.483 77.6609 12.6222C77.5415 12.7585 77.4819 12.9403 77.4819 13.1676C77.4819 13.483 77.5984 13.7216 77.8313 13.8835C78.0643 14.0426 78.3612 14.1222 78.7219 14.1222ZM82.5604 9.55398V8.45455H88.0831V9.55398H85.9482V15H84.7038V9.55398H82.5604ZM91.8832 15.1321C91.2695 15.1321 90.734 14.9915 90.2766 14.7102C89.8192 14.429 89.4641 14.0355 89.2113 13.5298C88.9585 13.0241 88.832 12.4332 88.832 11.7571C88.832 11.0781 88.9585 10.4844 89.2113 9.97585C89.4641 9.46733 89.8192 9.07244 90.2766 8.79119C90.734 8.50994 91.2695 8.36932 91.8832 8.36932C92.4968 8.36932 93.0323 8.50994 93.4897 8.79119C93.9471 9.07244 94.3022 9.46733 94.555 9.97585C94.8079 10.4844 94.9343 11.0781 94.9343 11.7571C94.9343 12.4332 94.8079 13.0241 94.555 13.5298C94.3022 14.0355 93.9471 14.429 93.4897 14.7102C93.0323 14.9915 92.4968 15.1321 91.8832 15.1321ZM91.8874 14.0625C92.2852 14.0625 92.6147 13.9574 92.8761 13.7472C93.1374 13.5369 93.3306 13.2571 93.4556 12.9077C93.5835 12.5582 93.6474 12.1733 93.6474 11.7528C93.6474 11.3352 93.5835 10.9517 93.4556 10.6023C93.3306 10.25 93.1374 9.96733 92.8761 9.75426C92.6147 9.54119 92.2852 9.43466 91.8874 9.43466C91.4869 9.43466 91.1545 9.54119 90.8903 9.75426C90.6289 9.96733 90.4343 10.25 90.3065 10.6023C90.1815 10.9517 90.119 11.3352 90.119 11.7528C90.119 12.1733 90.1815 12.5582 90.3065 12.9077C90.4343 13.2571 90.6289 13.5369 90.8903 13.7472C91.1545 13.9574 91.4869 14.0625 91.8874 14.0625ZM96.3565 17.4545V8.45455H97.6009V9.51562H97.7074C97.7813 9.37926 97.8878 9.22159 98.027 9.04261C98.1662 8.86364 98.3594 8.70739 98.6065 8.57386C98.8537 8.4375 99.1804 8.36932 99.5866 8.36932C100.115 8.36932 100.587 8.50284 101.001 8.76989C101.416 9.03693 101.741 9.42187 101.977 9.92472C102.216 10.4276 102.335 11.0327 102.335 11.7401C102.335 12.4474 102.217 13.054 101.982 13.5597C101.746 14.0625 101.422 14.4503 101.01 14.723C100.598 14.9929 100.128 15.1278 99.5994 15.1278C99.2017 15.1278 98.8764 15.0611 98.6236 14.9276C98.3736 14.794 98.1776 14.6378 98.0355 14.4588C97.8935 14.2798 97.7841 14.1207 97.7074 13.9815H97.6307V17.4545H96.3565ZM97.6051 11.7273C97.6051 12.1875 97.6719 12.5909 97.8054 12.9375C97.9389 13.2841 98.1321 13.5554 98.3849 13.7514C98.6378 13.9446 98.9474 14.0412 99.3139 14.0412C99.6946 14.0412 100.013 13.9403 100.268 13.7386C100.524 13.5341 100.717 13.2571 100.848 12.9077C100.982 12.5582 101.048 12.1648 101.048 11.7273C101.048 11.2955 100.983 10.9077 100.852 10.5639C100.724 10.2202 100.531 9.94886 100.273 9.75C100.017 9.55114 99.6974 9.4517 99.3139 9.4517C98.9446 9.4517 98.6321 9.54687 98.3764 9.73722C98.1236 9.92756 97.9318 10.1932 97.8011 10.5341C97.6705 10.875 97.6051 11.2727 97.6051 11.7273ZM108.302 12.912L106.514 9.348H110.078L108.302 12.912Z" fill="#005FF9"/>
</svg>
