<svg width="108" height="22" viewBox="0 0 108 22" fill="none" xmlns="http://www.w3.org/2000/svg">
<rect width="108" height="22" rx="11" fill="white"/>
<path d="M16.1602 6.27273V15H14.8477V7.39773H10.7397V15H9.4272V6.27273H16.1602ZM20.8285 15.1321C20.2148 15.1321 19.6793 14.9915 19.2219 14.7102C18.7646 14.429 18.4094 14.0355 18.1566 13.5298C17.9038 13.0241 17.7773 12.4332 17.7773 11.7571C17.7773 11.0781 17.9038 10.4844 18.1566 9.97585C18.4094 9.46733 18.7646 9.07244 19.2219 8.79119C19.6793 8.50994 20.2148 8.36932 20.8285 8.36932C21.4421 8.36932 21.9776 8.50994 22.435 8.79119C22.8924 9.07244 23.2475 9.46733 23.5004 9.97585C23.7532 10.4844 23.8796 11.0781 23.8796 11.7571C23.8796 12.4332 23.7532 13.0241 23.5004 13.5298C23.2475 14.0355 22.8924 14.429 22.435 14.7102C21.9776 14.9915 21.4421 15.1321 20.8285 15.1321ZM20.8327 14.0625C21.2305 14.0625 21.56 13.9574 21.8214 13.7472C22.0827 13.5369 22.2759 13.2571 22.4009 12.9077C22.5288 12.5582 22.5927 12.1733 22.5927 11.7528C22.5927 11.3352 22.5288 10.9517 22.4009 10.6023C22.2759 10.25 22.0827 9.96733 21.8214 9.75426C21.56 9.54119 21.2305 9.43466 20.8327 9.43466C20.4322 9.43466 20.0998 9.54119 19.8356 9.75426C19.5742 9.96733 19.3796 10.25 19.2518 10.6023C19.1268 10.9517 19.0643 11.3352 19.0643 11.7528C19.0643 12.1733 19.1268 12.5582 19.2518 12.9077C19.3796 13.2571 19.5742 13.5369 19.8356 13.7472C20.0998 13.9574 20.4322 14.0625 20.8327 14.0625ZM24.7862 15L24.782 13.8963H25.0163C25.1982 13.8963 25.3501 13.858 25.4723 13.7812C25.5973 13.7017 25.6996 13.5682 25.7791 13.3807C25.8587 13.1932 25.9197 12.9347 25.9624 12.6051C26.005 12.2727 26.0362 11.8551 26.0561 11.3523L26.1712 8.45455H30.7393V15H29.4908V9.55398H27.3516L27.2493 11.7784C27.2237 12.3182 27.1683 12.7898 27.0831 13.1932C27.0007 13.5966 26.88 13.9332 26.7209 14.2031C26.5618 14.4702 26.3572 14.6705 26.1072 14.804C25.8572 14.9347 25.5533 15 25.1953 15H24.7862ZM33.3974 10.7045H35.2979C36.0991 10.7045 36.7156 10.9034 37.1474 11.3011C37.5792 11.6989 37.7951 12.2116 37.7951 12.8395C37.7951 13.2486 37.6985 13.6165 37.5053 13.9432C37.3121 14.2699 37.0295 14.5284 36.6573 14.7188C36.2852 14.9062 35.832 15 35.2979 15H32.4386V8.45455H33.6871V13.9006H35.2979C35.6644 13.9006 35.9656 13.8054 36.2013 13.6151C36.4371 13.4219 36.555 13.1761 36.555 12.8778C36.555 12.5625 36.4371 12.3054 36.2013 12.1065C35.9656 11.9048 35.6644 11.804 35.2979 11.804H33.3974V10.7045ZM38.8359 13.2699H40.1399C40.157 13.5369 40.2777 13.7429 40.5021 13.8878C40.7294 14.0327 41.0234 14.1051 41.3842 14.1051C41.7507 14.1051 42.0632 14.027 42.3217 13.8707C42.5803 13.7116 42.7095 13.4659 42.7095 13.1335C42.7095 12.9347 42.6598 12.7614 42.5604 12.6136C42.4638 12.4631 42.326 12.3466 42.147 12.2642C41.9709 12.1818 41.7621 12.1406 41.5206 12.1406H40.4553V11.1392H41.5206C41.8814 11.1392 42.1513 11.0568 42.3303 10.892C42.5092 10.7273 42.5987 10.5213 42.5987 10.2741C42.5987 10.0071 42.5021 9.79261 42.3089 9.63068C42.1186 9.46591 41.853 9.38352 41.5121 9.38352C41.1655 9.38352 40.8771 9.46165 40.647 9.6179C40.4169 9.77131 40.2962 9.97017 40.2848 10.2145H38.9979C39.0064 9.84801 39.1172 9.52699 39.3303 9.25142C39.5462 8.97301 39.8359 8.7571 40.1996 8.60369C40.5661 8.44744 40.9822 8.36932 41.4482 8.36932C41.9339 8.36932 42.3544 8.44744 42.7095 8.60369C43.0646 8.75994 43.3388 8.97585 43.532 9.25142C43.728 9.52699 43.826 9.84375 43.826 10.2017C43.826 10.5625 43.718 10.858 43.5021 11.0881C43.2891 11.3153 43.0107 11.4787 42.6669 11.5781V11.6463C42.9197 11.6634 43.1442 11.7401 43.3402 11.8764C43.5362 12.0128 43.6896 12.1932 43.8004 12.4176C43.9112 12.642 43.9666 12.8963 43.9666 13.1804C43.9666 13.581 43.8558 13.9276 43.6342 14.2202C43.4155 14.5128 43.1115 14.7386 42.7223 14.8977C42.3359 15.054 41.8942 15.1321 41.397 15.1321C40.9141 15.1321 40.4808 15.0568 40.0973 14.9062C39.7166 14.7528 39.4141 14.5369 39.1896 14.2585C38.968 13.9801 38.8501 13.6506 38.8359 13.2699ZM48.0394 15.1321C47.4258 15.1321 46.8903 14.9915 46.4329 14.7102C45.9755 14.429 45.6204 14.0355 45.3675 13.5298C45.1147 13.0241 44.9883 12.4332 44.9883 11.7571C44.9883 11.0781 45.1147 10.4844 45.3675 9.97585C45.6204 9.46733 45.9755 9.07244 46.4329 8.79119C46.8903 8.50994 47.4258 8.36932 48.0394 8.36932C48.6531 8.36932 49.1886 8.50994 49.646 8.79119C50.1033 9.07244 50.4585 9.46733 50.7113 9.97585C50.9641 10.4844 51.0906 11.0781 51.0906 11.7571C51.0906 12.4332 50.9641 13.0241 50.7113 13.5298C50.4585 14.0355 50.1033 14.429 49.646 14.7102C49.1886 14.9915 48.6531 15.1321 48.0394 15.1321ZM48.0437 14.0625C48.4414 14.0625 48.771 13.9574 49.0323 13.7472C49.2937 13.5369 49.4869 13.2571 49.6119 12.9077C49.7397 12.5582 49.8036 12.1733 49.8036 11.7528C49.8036 11.3352 49.7397 10.9517 49.6119 10.6023C49.4869 10.25 49.2937 9.96733 49.0323 9.75426C48.771 9.54119 48.4414 9.43466 48.0437 9.43466C47.6431 9.43466 47.3107 9.54119 47.0465 9.75426C46.7852 9.96733 46.5906 10.25 46.4627 10.6023C46.3377 10.9517 46.2752 11.3352 46.2752 11.7528C46.2752 12.1733 46.3377 12.5582 46.4627 12.9077C46.5906 13.2571 46.7852 13.5369 47.0465 13.7472C47.3107 13.9574 47.6431 14.0625 48.0437 14.0625ZM52.5128 15V8.45455H55.2273C55.9659 8.45455 56.5511 8.61222 56.983 8.92756C57.4148 9.24006 57.6307 9.66477 57.6307 10.2017C57.6307 10.5852 57.5085 10.8892 57.2642 11.1136C57.0199 11.3381 56.696 11.4886 56.2926 11.5653C56.5852 11.5994 56.8537 11.6875 57.098 11.8295C57.3423 11.9687 57.5384 12.1562 57.6861 12.392C57.8366 12.6278 57.9119 12.9091 57.9119 13.2358C57.9119 13.5824 57.8224 13.8892 57.6435 14.1562C57.4645 14.4205 57.2045 14.6278 56.8636 14.7784C56.5256 14.9261 56.1179 15 55.6406 15H52.5128ZM53.7102 13.9347H55.6406C55.956 13.9347 56.2031 13.8594 56.3821 13.7088C56.5611 13.5582 56.6506 13.3537 56.6506 13.0952C56.6506 12.7912 56.5611 12.5526 56.3821 12.3793C56.2031 12.2031 55.956 12.1151 55.6406 12.1151H53.7102V13.9347ZM53.7102 11.1818H55.2401C55.4787 11.1818 55.6832 11.1477 55.8537 11.0795C56.027 11.0114 56.1591 10.9148 56.25 10.7898C56.3438 10.6619 56.3906 10.5114 56.3906 10.3381C56.3906 10.0852 56.2869 9.88778 56.0795 9.74574C55.8722 9.60369 55.5881 9.53267 55.2273 9.53267H53.7102V11.1818ZM61.2145 15.1449C60.7997 15.1449 60.4247 15.0682 60.0895 14.9148C59.7543 14.7585 59.4886 14.5327 59.2926 14.2372C59.0994 13.9418 59.0028 13.5795 59.0028 13.1506C59.0028 12.7812 59.0739 12.4773 59.2159 12.2386C59.358 12 59.5497 11.8111 59.7912 11.6719C60.0327 11.5327 60.3026 11.4276 60.6009 11.3565C60.8991 11.2855 61.2031 11.2315 61.5128 11.1946C61.9048 11.1491 62.223 11.1122 62.4673 11.0838C62.7116 11.0526 62.8892 11.0028 63 10.9347C63.1108 10.8665 63.1662 10.7557 63.1662 10.6023V10.5724C63.1662 10.2003 63.0611 9.91193 62.8509 9.70739C62.6435 9.50284 62.3338 9.40057 61.9219 9.40057C61.4929 9.40057 61.1548 9.49574 60.9077 9.68608C60.6634 9.87358 60.4943 10.0824 60.4006 10.3125L59.2031 10.0398C59.3452 9.64205 59.5526 9.32102 59.8253 9.0767C60.1009 8.82955 60.4176 8.65057 60.7756 8.53977C61.1335 8.42614 61.5099 8.36932 61.9048 8.36932C62.1662 8.36932 62.4432 8.40057 62.7358 8.46307C63.0313 8.52273 63.3068 8.63352 63.5625 8.79545C63.821 8.95739 64.0327 9.18892 64.1974 9.49006C64.3622 9.78835 64.4446 10.1761 64.4446 10.6534V15H63.2003V14.1051H63.1491C63.0668 14.2699 62.9432 14.4318 62.7784 14.5909C62.6136 14.75 62.402 14.8821 62.1435 14.9872C61.8849 15.0923 61.5753 15.1449 61.2145 15.1449ZM61.4915 14.1222C61.8438 14.1222 62.1449 14.0526 62.3949 13.9134C62.6477 13.7741 62.8395 13.5923 62.9702 13.3679C63.1037 13.1406 63.1705 12.8977 63.1705 12.6392V11.7955C63.125 11.8409 63.0369 11.8835 62.9062 11.9233C62.7784 11.9602 62.6321 11.9929 62.4673 12.0213C62.3026 12.0469 62.142 12.071 61.9858 12.0938C61.8295 12.1136 61.6989 12.1307 61.5938 12.1449C61.3466 12.1761 61.1207 12.2287 60.9162 12.3026C60.7145 12.3764 60.5526 12.483 60.4304 12.6222C60.3111 12.7585 60.2514 12.9403 60.2514 13.1676C60.2514 13.483 60.3679 13.7216 60.6009 13.8835C60.8338 14.0426 61.1307 14.1222 61.4915 14.1222ZM65.3299 9.55398V8.45455H70.8526V9.55398H68.7177V15H67.4734V9.55398H65.3299ZM74.7166 15.1321C74.0717 15.1321 73.5163 14.9943 73.0504 14.7188C72.5874 14.4403 72.2294 14.0497 71.9766 13.5469C71.7266 13.0412 71.6016 12.4489 71.6016 11.7699C71.6016 11.0994 71.7266 10.5085 71.9766 9.99716C72.2294 9.4858 72.5817 9.08665 73.0334 8.79972C73.4879 8.51278 74.0192 8.36932 74.6271 8.36932C74.9964 8.36932 75.3544 8.4304 75.701 8.55256C76.0476 8.67472 76.3587 8.86648 76.6342 9.12784C76.9098 9.3892 77.1271 9.72869 77.2862 10.1463C77.4453 10.5611 77.5249 11.0653 77.5249 11.6591V12.1108H72.3217V11.1562H76.2763C76.2763 10.821 76.2081 10.5241 76.0717 10.2656C75.9354 10.0043 75.7436 9.7983 75.4964 9.64773C75.2521 9.49716 74.9652 9.42188 74.6357 9.42188C74.2777 9.42188 73.9652 9.50994 73.6982 9.68608C73.4339 9.85937 73.2294 10.0866 73.0845 10.3679C72.9425 10.6463 72.8714 10.9489 72.8714 11.2756V12.0213C72.8714 12.4588 72.9482 12.831 73.1016 13.1378C73.2578 13.4446 73.4751 13.679 73.7536 13.8409C74.032 14 74.3572 14.0795 74.7294 14.0795C74.9709 14.0795 75.1911 14.0455 75.3899 13.9773C75.5888 13.9062 75.7607 13.8011 75.9055 13.6619C76.0504 13.5227 76.1612 13.3509 76.2379 13.1463L77.4439 13.3636C77.3473 13.7187 77.174 14.0298 76.924 14.2969C76.6768 14.5611 76.3658 14.767 75.9908 14.9148C75.6186 15.0597 75.1939 15.1321 74.7166 15.1321ZM78.4229 15L78.4187 13.8963H78.6531C78.8349 13.8963 78.9869 13.858 79.109 13.7812C79.234 13.7017 79.3363 13.5682 79.4158 13.3807C79.4954 13.1932 79.5565 12.9347 79.5991 12.6051C79.6417 12.2727 79.6729 11.8551 79.6928 11.3523L79.8079 8.45455H84.3761V15H83.1275V9.55398H80.9883L80.886 11.7784C80.8604 12.3182 80.805 12.7898 80.7198 13.1932C80.6374 13.5966 80.5167 13.9332 80.3576 14.2031C80.1985 14.4702 79.994 14.6705 79.744 14.804C79.494 14.9347 79.19 15 78.832 15H78.4229ZM87.0341 10.7045H88.9347C89.7358 10.7045 90.3523 10.9034 90.7841 11.3011C91.2159 11.6989 91.4318 12.2116 91.4318 12.8395C91.4318 13.2486 91.3352 13.6165 91.142 13.9432C90.9489 14.2699 90.6662 14.5284 90.294 14.7188C89.9219 14.9062 89.4688 15 88.9347 15H86.0753V8.45455H87.3239V13.9006H88.9347C89.3011 13.9006 89.6023 13.8054 89.8381 13.6151C90.0739 13.4219 90.1918 13.1761 90.1918 12.8778C90.1918 12.5625 90.0739 12.3054 89.8381 12.1065C89.6023 11.9048 89.3011 11.804 88.9347 11.804H87.0341V10.7045ZM97.3997 12.912L95.6117 9.348H99.1757L97.3997 12.912Z" fill="#008E30"/>
</svg>

